<?xml version="1.0" encoding="UTF-8"?>
<svg version="1.1" xmlns="http://www.w3.org/2000/svg" width="120" height="120">
<path d="M0 0 C0.8946698 -0.00817749 1.7893396 -0.01635498 2.71112061 -0.02478027 C5.6756524 -0.049617 8.64013631 -0.06614723 11.60473633 -0.08056641 C12.6180282 -0.08589008 13.63132008 -0.09121376 14.67531776 -0.09669876 C20.04021066 -0.12342474 25.40508034 -0.14280015 30.77001953 -0.15722656 C35.20577648 -0.17055936 39.6410727 -0.19840092 44.07666016 -0.23925781 C49.43588627 -0.28862163 54.79469481 -0.31335251 60.15413857 -0.32045364 C62.19343942 -0.327159 64.23273122 -0.34236234 66.27190208 -0.36634445 C69.13227945 -0.39806122 71.99105453 -0.39802276 74.8515625 -0.390625 C75.68770584 -0.40703033 76.52384918 -0.42343567 77.3853302 -0.44033813 C83.48781879 -0.3760137 87.49346875 1.37829125 92.24926758 5.19287109 C97.26441778 10.59380208 97.40425046 15.05011557 97.42626953 22.15893555 C97.43284073 23.07632507 97.43941193 23.9937146 97.44618225 24.93890381 C97.46590987 27.97798747 97.47757613 31.01702175 97.48754883 34.05615234 C97.49162436 35.09400564 97.49569988 36.13185894 97.49989891 37.20116234 C97.52075646 42.69343237 97.53506007 48.18567744 97.54443359 53.67797852 C97.55550276 59.35087364 97.58990963 65.02337704 97.62960529 70.69613361 C97.65574652 75.05847403 97.66412318 79.4207207 97.66771507 83.78313255 C97.67258676 85.8743066 97.68421724 87.9654763 97.70275307 90.05657387 C97.7270931 92.9842399 97.72618884 95.91088687 97.71923828 98.83862305 C97.73204834 99.70065842 97.7448584 100.56269379 97.75805664 101.45085144 C97.70431288 107.66790137 96.09283212 111.32889819 91.61645508 115.83740234 C86.23528302 120.04936686 83.01828688 120.34938444 76.30493164 120.36987305 C75.37793457 120.37644424 74.4509375 120.38301544 73.49584961 120.38978577 C70.41886316 120.40954466 67.3419256 120.42118755 64.26489258 120.43115234 C63.21508965 120.43522787 62.16528671 120.4393034 61.08367157 120.44350243 C55.52656754 120.46437489 49.96948829 120.47867114 44.41235352 120.48803711 C38.67105029 120.49909994 32.93013482 120.53349526 27.18896866 120.57320881 C22.77601397 120.59935127 18.36315196 120.60772689 13.95012665 120.61131859 C11.83383314 120.61619119 9.71754396 120.62782427 7.60132599 120.64635658 C4.63763204 120.67069566 1.67494487 120.66979231 -1.28881836 120.6628418 C-2.16177551 120.67565186 -3.03473267 120.68846191 -3.93414307 120.70166016 C-10.19109096 120.64822734 -13.81527808 119.04465452 -18.39526367 114.59521484 C-22.71954959 109.17177932 -22.9101254 105.07445693 -22.94360352 98.3503418 C-22.95178101 97.44591843 -22.9599585 96.54149506 -22.96838379 95.60966492 C-22.99322157 92.61266744 -23.00975098 89.61571732 -23.02416992 86.61865234 C-23.0294936 85.59432791 -23.03481728 84.57000347 -23.04030228 83.5146389 C-23.06702864 78.09139123 -23.08640398 72.66816652 -23.10083008 67.24487305 C-23.11416326 62.76061579 -23.14200551 58.27681422 -23.18286133 53.79272461 C-23.23222175 48.37514452 -23.25695561 42.95797747 -23.26405716 37.54018211 C-23.27076303 35.47855307 -23.28596774 33.41693299 -23.30994797 31.35543251 C-23.34166025 28.46392729 -23.3416269 25.57400739 -23.33422852 22.68237305 C-23.35063385 21.83687897 -23.36703918 20.99138489 -23.38394165 20.12026978 C-23.3204817 14.03560513 -21.66001462 9.88493744 -17.75073242 5.19287109 C-11.85123428 0.59126254 -7.27695026 0.03663091 0 0 Z " fill="#FEFEFC" transform="translate(22.750732421875,-0.19287109375)"/>
<path d="M0 0 C10.64222802 -0.23191296 18.89051113 3.34768377 26.72265625 10.59375 C31.55402375 15.83287997 34.75714458 22.27143373 37 29 C37.20753906 28.38253906 37.41507813 27.76507813 37.62890625 27.12890625 C41.58625912 16.25032535 47.79010277 8.6230628 58 3 C63.79568698 0.56927158 68.70885713 -0.13058538 75 0 C75.47143387 11.28822216 75.49252813 20.11145687 69.125 29.875 C66.61235182 32.38764818 64.08013999 34.23055788 61 36 C60.01 36 59.02 36 58 36 C58 36.66 58 37.32 58 38 C59.2684375 38.2784375 59.2684375 38.2784375 60.5625 38.5625 C67.05244455 41.27647681 71.68830326 46.5548807 74.35546875 53.046875 C75.84650805 59.87854597 75.26981121 67.05236138 75 74 C64.73974845 74.77112538 57.7742767 71.90617198 49.78125 65.5625 C43.70223655 60.23003206 39.01770101 53.14160805 38 45 C37.34 45 36.68 45 36 45 C35.81630859 46.08861328 35.81630859 46.08861328 35.62890625 47.19921875 C33.71541503 55.72079143 28.8378098 62.67644565 22 68 C16.36456901 71.36119178 10.96338737 74.15888967 4.3125 74.0625 C3.50425781 74.05347656 2.69601563 74.04445313 1.86328125 74.03515625 C1.24839844 74.02355469 0.63351563 74.01195313 0 74 C-0.08166849 70.99943916 -0.14081551 68.0011461 -0.1875 65 C-0.21263672 64.16082031 -0.23777344 63.32164063 -0.26367188 62.45703125 C-0.34150095 55.76373094 0.55367962 50.34666105 4.61328125 44.79296875 C8.17687966 41.42598267 11.40067305 38.907038 16 37 C15.49210937 36.72027344 14.98421875 36.44054688 14.4609375 36.15234375 C8.46999766 32.66323834 3.70410987 28.84000434 0.84375 22.39453125 C-0.27012652 17.91324099 -0.2149746 13.72062581 -0.125 9.125 C-0.11597656 8.24585938 -0.10695313 7.36671875 -0.09765625 6.4609375 C-0.07424577 4.3071729 -0.0383801 2.15354986 0 0 Z " fill="#FC6B04" transform="translate(23,23)"/>
<path d="M0 0 C0.99 0.99 1.98 1.98 3 3 C0.03 2.67 -2.94 2.34 -6 2 C-5.91207291 4.98042511 -5.80507424 7.95821312 -5.6875 10.9375 C-5.66494141 11.76830078 -5.64238281 12.59910156 -5.61914062 13.45507812 C-5.36437613 19.40730322 -4.16991144 24.45578827 -2 30 C-2.99 30 -3.98 30 -5 30 C-5.309375 29.030625 -5.61875 28.06125 -5.9375 27.0625 C-6.69523342 24.15934208 -6.69523342 24.15934208 -8 23 C-8.15714654 21.36743242 -8.25085414 19.72864662 -8.31640625 18.08984375 C-8.35830078 17.10048828 -8.40019531 16.11113281 -8.44335938 15.09179688 C-8.48267578 14.05087891 -8.52199219 13.00996094 -8.5625 11.9375 C-8.60568359 10.89271484 -8.64886719 9.84792969 -8.69335938 8.77148438 C-8.79981225 6.18113116 -8.9018276 3.59067814 -9 1 C-5.95016004 -0.52491998 -3.3576631 -0.23562548 0 0 Z " fill="#FEEBCB" transform="translate(29,21)"/>
<path d="M0 0 C0.66 1.32 1.32 2.64 2 4 C1.50628906 4.44730469 1.01257813 4.89460938 0.50390625 5.35546875 C-4.41263727 9.77954779 -4.41263727 9.77954779 -6 16 C-8.31 15.01 -10.62 14.02 -13 13 C-13 12.34 -13 11.68 -13 11 C-12.39671875 10.70867188 -11.7934375 10.41734375 -11.171875 10.1171875 C-5.87636735 7.40110454 -2.8196866 5.27158799 0 0 Z " fill="#FEEBD0" transform="translate(94,48)"/>
<path d="M0 0 C2.06723714 3.10085571 2.24497423 3.72931681 2.1953125 7.23046875 C2.18564453 8.43413086 2.18564453 8.43413086 2.17578125 9.66210938 C2.15902344 10.49548828 2.14226562 11.32886719 2.125 12.1875 C2.11597656 13.03248047 2.10695313 13.87746094 2.09765625 14.74804688 C2.07410703 16.83215243 2.03823647 18.91611217 2 21 C0.37536158 21.05395478 -1.24978541 21.09277195 -2.875 21.125 C-3.77992187 21.14820312 -4.68484375 21.17140625 -5.6171875 21.1953125 C-8 21 -8 21 -10 19 C-6.7 19 -3.4 19 0 19 C0 12.73 0 6.46 0 0 Z " fill="#EE8E41" transform="translate(96,76)"/>
<path d="M0 0 C6.15234375 -0.09765625 6.15234375 -0.09765625 8 0 C9 1 9 1 9.09765625 4.59765625 C9.0909822 6.08596867 9.07902183 7.57426432 9.0625 9.0625 C9.05798828 9.82111328 9.05347656 10.57972656 9.04882812 11.36132812 C9.0370068 13.24091871 9.01907078 15.12046899 9 17 C8.67 17 8.34 17 8 17 C8 12.05 8 7.1 8 2 C4.720625 2.6496875 4.720625 2.6496875 1.375 3.3125 C-0.46964844 3.67794922 -0.46964844 3.67794922 -2.3515625 4.05078125 C-5.90511251 4.975313 -8.76087305 6.30444528 -12 8 C-12.66 8 -13.32 8 -14 8 C-14 7.34 -14 6.68 -14 6 C-4.58997722 1.40774487 -4.58997722 1.40774487 0 2 C0 1.34 0 0.68 0 0 Z " fill="#FFF6DF" transform="translate(90,21)"/>
<path d="M0 0 C0.05429278 2.70860665 0.09381211 5.41610901 0.125 8.125 C0.15013672 9.26582031 0.15013672 9.26582031 0.17578125 10.4296875 C0.21546246 15.03270731 -0.24092423 18.66464004 -2 23 C-2.33 23 -2.66 23 -3 23 C-2.67 16.07 -2.34 9.14 -2 2 C-4.97 2 -7.94 2 -11 2 C-6.78370866 -0.10814567 -4.60209225 -0.17700355 0 0 Z " fill="#EF8A3B" transform="translate(98,23)"/>
<path d="M0 0 C0.33 0.66 0.66 1.32 1 2 C-0.80341966 6.60873914 -2.83394531 9.32182199 -7 12 C-9.8125 12.75 -9.8125 12.75 -12 13 C-12 13.66 -12 14.32 -12 15 C-15.83887763 16.48320272 -18.06204091 17.22419163 -22 16 C-21.12988281 15.63648437 -21.12988281 15.63648437 -20.2421875 15.265625 C-11.61368423 11.5636269 -5.94770465 7.24986484 0 0 Z " fill="#FEF0D4" transform="translate(54,80)"/>
<path d="M0 0 C3.58461028 3.18297328 4.46139573 6.53072093 6 11 C6.99 8.36 7.98 5.72 9 3 C10.03103689 7.12414757 9.94701684 7.9841142 8.5625 11.75 C8.27503906 12.54921875 7.98757812 13.3484375 7.69140625 14.171875 C7.46324219 14.77515625 7.23507813 15.3784375 7 16 C6.34 15.67 5.68 15.34 5 15 C5 14.01 5 13.02 5 12 C4.34 12 3.68 12 3 12 C3 10.35 3 8.7 3 7 C2.34 7 1.68 7 1 7 C0.67 4.69 0.34 2.38 0 0 Z " fill="#F18F3A" transform="translate(54,41)"/>
<path d="M0 0 C7.92574257 0 7.92574257 0 11.8125 1.375 C12.56144531 1.63023438 13.31039062 1.88546875 14.08203125 2.1484375 C16 3 16 3 18 5 C15.03 4.67 12.06 4.34 9 4 C9 3.34 9 2.68 9 2 C6.36 1.67 3.72 1.34 1 1 C1 6.94 1 12.88 1 19 C0.67 19 0.34 19 0 19 C0 12.73 0 6.46 0 0 Z " fill="#E57D2E" transform="translate(23,23)"/>
<path d="M0 0 C3.63 2.31 7.26 4.62 11 7 C9.02 7.99 9.02 7.99 7 9 C7 8.01 7 7.02 7 6 C6.21625 5.938125 5.4325 5.87625 4.625 5.8125 C3.75875 5.544375 2.8925 5.27625 2 5 C1.34 3.35 0.68 1.7 0 0 Z " fill="#FEE4BE" transform="translate(29,53)"/>
<path d="M0 0 C0.66 1.32 1.32 2.64 2 4 C-0.31 6.31 -2.62 8.62 -5 11 C-5 7.58678765 -4.33132534 6.60527115 -2.5 3.8125 C-2.0359375 3.09707031 -1.571875 2.38164063 -1.09375 1.64453125 C-0.7328125 1.10183594 -0.371875 0.55914062 0 0 Z " fill="#FEF1E2" transform="translate(94,48)"/>
<path d="M0 0 C-2.84655869 1.44277632 -5.71639675 2.81175104 -8.625 4.125 C-9.40101562 4.47820313 -10.17703125 4.83140625 -10.9765625 5.1953125 C-13 6 -13 6 -15 6 C-15 5.34 -15 4.68 -15 4 C-5.77448747 -0.59225513 -5.77448747 -0.59225513 0 0 Z " fill="#FEE3C2" transform="translate(91,23)"/>
<path d="M0 0 C2.73370045 2.36092311 3.91097645 4.56538728 5 8 C5 9.32 5 10.64 5 12 C4.34 12 3.68 12 3 12 C3 10.35 3 8.7 3 7 C2.34 7 1.68 7 1 7 C0.67 4.69 0.34 2.38 0 0 Z " fill="#E97F2A" transform="translate(54,41)"/>
<path d="M0 0 C2.39763185 2.39763185 2.34280586 3.33273498 2.625 6.625 C2.69976562 7.44226563 2.77453125 8.25953125 2.8515625 9.1015625 C2.90054688 9.72804688 2.94953125 10.35453125 3 11 C1 8 1 8 1 6 C0.34 6 -0.32 6 -1 6 C-0.67 4.02 -0.34 2.04 0 0 Z " fill="#F18B2F" transform="translate(60,62)"/>
<path d="M0 0 C2.18092036 2.07858979 3.96390469 4.21856618 5.6875 6.6875 C6.12449219 7.31011719 6.56148438 7.93273437 7.01171875 8.57421875 C7.33785156 9.04472656 7.66398437 9.51523438 8 10 C5.54291673 9.62317841 4.33157047 9.4083229 2.734375 7.44140625 C0 2.22222222 0 2.22222222 0 0 Z " fill="#FEEECD" transform="translate(64,78)"/>
<path d="M0 0 C0.99 0 1.98 0 3 0 C4.42944945 2.35438733 5.08661261 3.48032433 4.625 6.25 C4.41875 6.8275 4.2125 7.405 4 8 C0 2.25 0 2.25 0 0 Z " fill="#FEEBCF" transform="translate(52,36)"/>
</svg>
