<svg width="96" height="24" viewBox="0 0 96 24" fill="none" xmlns="http://www.w3.org/2000/svg">
    <path fill-rule="evenodd" clip-rule="evenodd" d="M23.8495 23.9999C17.5999 23.794 12.616 19.3262 12.0313 13.0722C12.021 12.958 12.0076 12.958 11.9909 13.0722C11.2894 18.0847 8.59777 21.5194 3.91589 23.3763C2.94643 23.7612 1.67818 23.964 0.111143 23.9845C0.0495902 23.9858 0.0181729 23.9557 0.0168905 23.8941C-0.00106244 22.494 -0.00170403 21.0927 0.0149666 19.6901C0.0611314 15.9442 2.11739 13.18 5.72786 12.0501C5.78813 12.0308 5.78813 12.0116 5.72786 11.9923C1.84745 10.727 -0.0613335 7.99879 0.00150192 3.80761C0.0194549 2.57695 0.0200965 1.37388 0.00342586 0.198405C0.00312903 0.172892 0.00806031 0.147591 0.0179156 0.124059C0.0277709 0.100528 0.0423412 0.0792685 0.0607267 0.0615913C0.0791121 0.0439142 0.100922 0.0301951 0.124812 0.0212815C0.148702 0.0123679 0.174164 0.00844787 0.199626 0.00976478C6.40494 0.313901 11.4081 4.74312 11.9332 10.9471C11.9334 10.9576 11.9378 10.9677 11.9454 10.9753C11.9492 10.9791 11.9536 10.9821 11.9584 10.9842C11.9632 10.9863 11.9684 10.9875 11.9736 10.9876C11.984 10.9879 11.994 10.9839 12.0012 10.9767C12.0084 10.9695 12.0123 10.9595 12.012 10.949C12.7218 4.68152 17.4518 0.331224 23.8283 0.000139641C23.8447 -0.00064226 23.8611 0.00186543 23.8765 0.00751197C23.8919 0.0131585 23.9059 0.0218281 23.9178 0.0329891C23.9297 0.0441501 23.9391 0.0575723 23.9455 0.0724413C23.952 0.0873103 23.9553 0.103316 23.9553 0.119486C23.9553 0.597334 23.966 1.10283 23.977 1.61838V1.61841C24.0102 3.18379 24.0455 4.84187 23.7879 6.10018C23.1839 9.053 21.3457 11.0055 18.2731 11.9577C18.1834 11.9846 18.1834 12.0129 18.2731 12.0424C21.1931 13.0151 23.0082 14.8836 23.7187 17.6477C23.8956 18.3356 23.9796 19.2877 23.9706 20.5043C23.9617 21.6259 23.9578 22.7558 23.9591 23.8941C23.9591 23.9083 23.9563 23.9224 23.9507 23.9355C23.9451 23.9486 23.937 23.9604 23.9268 23.9703C23.9165 23.9802 23.9044 23.9879 23.8911 23.993C23.8778 23.9981 23.8637 24.0004 23.8495 23.9999ZM93.5239 20.6502C94.4813 20.017 95.2407 19.1871 95.8019 18.1603L93.1029 16.7742C92.8223 17.3047 92.4344 17.7496 91.9391 18.109C91.4604 18.4513 90.8496 18.6224 90.1068 18.6224C89.7271 18.6224 89.3557 18.571 88.9926 18.4684C88.6294 18.3486 88.291 18.1689 87.9773 17.9293C87.6802 17.6726 87.4243 17.3646 87.2097 17.0053C87.0116 16.6288 86.8796 16.1839 86.8136 15.6705H95.9505C95.9505 15.5678 95.9587 15.4737 95.9752 15.3882C95.9752 15.3026 95.9835 15.2085 96 15.1058V14.7978C96 13.8566 95.8679 12.9839 95.6038 12.1796C95.3397 11.3753 94.9518 10.6823 94.44 10.1005C93.9283 9.50152 93.2928 9.03949 92.5334 8.71436C91.7741 8.37211 90.9074 8.20099 89.9335 8.20099C89.0091 8.20099 88.1589 8.38067 87.3831 8.74003C86.6237 9.09938 85.9634 9.58708 85.4022 10.2031C84.8409 10.8021 84.4035 11.5122 84.0898 12.3336C83.7762 13.1379 83.6193 13.9935 83.6193 14.9005C83.6193 15.8759 83.7762 16.7742 84.0898 17.5956C84.42 18.3999 84.8739 19.1015 85.4517 19.7005C86.0294 20.2994 86.7063 20.77 87.4821 21.1122C88.2745 21.4373 89.1329 21.5999 90.0573 21.5999C91.4274 21.5999 92.5829 21.2833 93.5239 20.6502ZM92.6325 12.539C92.7645 12.8128 92.8388 13.0609 92.8553 13.2833H86.9869C87.2015 12.5475 87.5729 11.9742 88.1011 11.5636C88.6294 11.1529 89.2402 10.9475 89.9335 10.9475C90.4287 10.9475 90.8496 11.0245 91.1963 11.1785C91.5595 11.3325 91.8566 11.5293 92.0877 11.7689C92.3353 12.0085 92.5169 12.2652 92.6325 12.539ZM72.1113 18.4171L78.3016 11.4866H72.3094V8.61172H82.2882V11.3839L76.0978 18.3144H82.3872V21.1893H72.1113V18.4171ZM66.4927 19.8545H66.6908V21.1892H69.885V13.6427C69.885 11.8459 69.3898 10.494 68.3993 9.58708C67.4089 8.66302 65.9727 8.20099 64.0909 8.20099C61.8623 8.20099 60.1043 9.03949 58.8167 10.7165L61.169 12.3849C61.9449 11.4095 62.8941 10.9218 64.0166 10.9218C64.7759 10.9218 65.4115 11.1443 65.9232 11.5892C66.4349 12.017 66.6908 12.5646 66.6908 13.232V13.617C66.3606 13.4801 65.9397 13.3518 65.428 13.232C64.9162 13.0951 64.2642 13.0267 63.4718 13.0267C62.762 13.0267 62.1017 13.1293 61.4909 13.3347C60.8967 13.5229 60.3767 13.8053 59.931 14.1817C59.4853 14.5582 59.1386 15.0117 58.891 15.5422C58.6434 16.0555 58.5196 16.6374 58.5196 17.2876C58.5196 17.9208 58.6351 18.5026 58.8662 19.0331C59.0973 19.5636 59.4192 20.017 59.8319 20.3935C60.2446 20.77 60.7233 21.0609 61.2681 21.2662C61.8293 21.4887 62.4236 21.5999 63.0509 21.5999C63.8928 21.5999 64.5778 21.4288 65.1061 21.0865C65.6508 20.7443 66.113 20.3336 66.4927 19.8545ZM65.5023 15.6448C65.9149 15.7475 66.3111 15.893 66.6908 16.0812C66.6908 16.4577 66.6165 16.8256 66.4679 17.1849C66.3359 17.5272 66.1378 17.8352 65.8737 18.109C65.6261 18.3657 65.3207 18.5796 64.9575 18.7507C64.5943 18.9047 64.1982 18.9817 63.769 18.9817C63.2407 18.9817 62.7703 18.8277 62.3576 18.5197C61.9614 18.2117 61.7633 17.801 61.7633 17.2876C61.7633 16.7742 61.9696 16.3464 62.3823 16.0042C62.8115 15.6448 63.4141 15.4652 64.1899 15.4652C64.6686 15.4652 65.1061 15.5251 65.5023 15.6448ZM49.6132 8.61182H52.6588V10.3573H52.8569C53.0055 10.0493 53.2036 9.7669 53.4512 9.51022C53.6988 9.25353 53.9712 9.03107 54.2683 8.84284C54.582 8.6546 54.9121 8.50915 55.2588 8.40647C55.6219 8.3038 55.9769 8.25246 56.3235 8.25246C56.7527 8.25246 57.1159 8.29524 57.413 8.3808C57.7267 8.46637 57.9908 8.5776 58.2054 8.71449L57.3387 11.769C57.1406 11.6664 56.9178 11.5894 56.6702 11.538C56.4391 11.4696 56.1502 11.4353 55.8035 11.4353C55.3578 11.4353 54.9534 11.5295 54.5902 11.7177C54.2271 11.8888 53.9134 12.137 53.6493 12.4621C53.4017 12.7872 53.2036 13.1722 53.055 13.6172C52.923 14.045 52.8569 14.5156 52.8569 15.0289V21.1894H49.6132V8.61182ZM44.4722 20.753C45.6608 20.1711 46.6925 19.3326 47.5674 18.2375L45.1903 15.9016C44.596 16.6717 43.911 17.2706 43.1351 17.6984C42.3758 18.1091 41.5009 18.3145 40.5104 18.3145C39.685 18.3145 38.9092 18.169 38.1828 17.8781C37.4565 17.5701 36.821 17.1423 36.2762 16.5947C35.748 16.0471 35.327 15.3883 35.0134 14.6182C34.6997 13.831 34.5429 12.9583 34.5429 12C34.5429 11.0417 34.6997 10.1776 35.0134 9.40751C35.327 8.62034 35.748 7.95296 36.2762 7.40537C36.821 6.85777 37.4565 6.43852 38.1828 6.14761C38.9092 5.83959 39.685 5.68558 40.5104 5.68558C41.4513 5.68558 42.2602 5.87382 42.937 6.25029C43.6303 6.62676 44.2411 7.13157 44.7693 7.76473L47.1217 5.40323C46.2798 4.42783 45.3141 3.68344 44.2246 3.17007C43.1516 2.6567 41.9053 2.40002 40.4856 2.40002C39.165 2.40002 37.9352 2.64815 36.7962 3.14441C35.6737 3.64066 34.6997 4.3166 33.8744 5.17221C33.049 6.02783 32.3969 7.04601 31.9182 8.22676C31.4395 9.39039 31.2002 10.6481 31.2002 12C31.2002 13.3519 31.4395 14.6182 31.9182 15.7989C32.3969 16.9626 33.049 17.9722 33.8744 18.8278C34.6997 19.6834 35.6737 20.3594 36.7962 20.8556C37.9352 21.3519 39.165 21.6 40.4856 21.6C41.9548 21.6 43.2837 21.3177 44.4722 20.753Z" fill="#FF6B00"/>
</svg>
