<?xml version="1.0" encoding="UTF-8"?>
<svg version="1.1" xmlns="http://www.w3.org/2000/svg" width="3163" height="849">
<path d="M0 0 C14.19 0 28.38 0 43 0 C43 42.57 43 85.14 43 129 C96.13 129 149.26 129 204 129 C204 86.43 204 43.86 204 0 C218.19 0 232.38 0 247 0 C247 102.96 247 205.92 247 312 C232.81 312 218.62 312 204 312 C204 264.15 204 216.3 204 167 C150.87 167 97.74 167 43 167 C43 214.85 43 262.7 43 312 C28.81 312 14.62 312 0 312 C0 209.04 0 106.08 0 0 Z " fill="#1A1B1B" transform="translate(931,226)"/>
<path d="M0 0 C2.65696647 2.46352815 5.20713482 5.01989566 7.73583984 7.61401367 C8.49638672 8.36553711 9.25693359 9.11706055 10.04052734 9.89135742 C15.89922376 16.0122134 19.84925465 23.16110948 23.73583984 30.61401367 C24.55761719 32.15895508 24.55761719 32.15895508 25.39599609 33.73510742 C33.97356457 50.95605692 36.93238328 70.5797452 37.73583984 89.61401367 C37.78998047 90.82444336 37.84412109 92.03487305 37.89990234 93.28198242 C38.66077057 126.65642946 30.07925966 163.27085575 8.73583984 189.61401367 C8.12224609 190.39131836 7.50865234 191.16862305 6.87646484 191.96948242 C-6.17001595 207.63065048 -26.23354021 217.64249905 -46.33447266 220.29370117 C-69.00455618 222.14156086 -91.49594605 220.8633248 -109.72119141 205.86010742 C-114.75795578 201.47355975 -118.51835256 197.23272507 -122.26416016 191.61401367 C-122.59416016 228.57401367 -122.92416016 265.53401367 -123.26416016 303.61401367 C-136.13416016 303.61401367 -149.00416016 303.61401367 -162.26416016 303.61401367 C-162.26416016 199.33401367 -162.26416016 95.05401367 -162.26416016 -12.38598633 C-150.05416016 -12.38598633 -137.84416016 -12.38598633 -125.26416016 -12.38598633 C-124.93416016 -2.48598633 -124.60416016 7.41401367 -124.26416016 17.61401367 C-121.95416016 14.64401367 -119.64416016 11.67401367 -117.26416016 8.61401367 C-104.72887046 -7.08855563 -88.08805153 -16.07732883 -68.26416016 -19.07348633 C-44.59256773 -21.40183968 -18.18920577 -16.08687078 0 0 Z M-104.26416016 32.61401367 C-104.79654297 33.19151367 -105.32892578 33.76901367 -105.87744141 34.36401367 C-124.67718769 56.37347273 -126.76345268 91.98415839 -124.87109375 119.50732422 C-123.36052968 137.42346517 -119.0786546 153.59011574 -107.26416016 167.61401367 C-106.73306641 168.25725586 -106.20197266 168.90049805 -105.65478516 169.56323242 C-95.34200011 180.92261199 -80.13564167 186.7404186 -65.04150391 187.64916992 C-49.36236337 187.45069979 -35.97186322 182.14663819 -24.63916016 171.42651367 C-16.60803026 163.04559589 -11.82314101 153.58753797 -8.26416016 142.61401367 C-7.70728516 140.89698242 -7.70728516 140.89698242 -7.13916016 139.14526367 C1.191372 109.98840113 0.94376718 71.469489 -12.67431641 43.74291992 C-19.78109686 31.29184057 -29.56606028 22.31758941 -43.51416016 18.17651367 C-65.62599965 12.6788274 -88.34805402 15.06548639 -104.26416016 32.61401367 Z " fill="#1A1C1C" transform="translate(1613.26416015625,323.385986328125)"/>
<path d="M0 0 C12.87 0 25.74 0 39 0 C39.33 36.63 39.66 73.26 40 111 C43.63 107.04 47.26 103.08 51 99 C63.71819165 86.0919846 81.89639905 78.78267448 100 78 C100.72703125 77.96003906 101.4540625 77.92007813 102.203125 77.87890625 C126.6906395 77.18968813 148.94488751 85.46531804 167 102 C173.4242897 108.3420588 178.52994638 115.16962766 183 123 C183.58652344 124.02480469 184.17304688 125.04960937 184.77734375 126.10546875 C201.18420674 156.72921958 203.37217833 196.43352766 196 230 C195.83902832 230.76844238 195.67805664 231.53688477 195.51220703 232.32861328 C191.82933097 249.44814956 185.43125121 266.81544812 175 281 C174.17242188 282.15628906 174.17242188 282.15628906 173.328125 283.3359375 C159.1008067 302.45797541 138.8709111 313.96416636 115.34375 317.55859375 C101.67911554 319.16382531 87.20174517 319.05936015 74 315 C72.70835937 314.61714844 72.70835937 314.61714844 71.390625 314.2265625 C56.88337589 309.1906066 46.33804459 298.50706689 38 286 C37.505 298.87 37.505 298.87 37 312 C24.79 312 12.58 312 0 312 C0 209.04 0 106.08 0 0 Z M56 131 C37.14883143 155.47344691 34.15259101 192.62356391 37.53125 222.42578125 C39.72805635 238.53937156 44.46773035 254.9739052 56 267 C56.66 267 57.32 267 58 267 C58 267.66 58 268.32 58 269 C59.94773101 270.55938897 61.87721746 271.9782993 63.9375 273.375 C64.53071045 273.77984619 65.1239209 274.18469238 65.73510742 274.60180664 C78.08477081 282.86332865 92.0489202 286.32874124 106.9140625 284.625 C122.96313457 281.37455502 135.1856596 273.18259057 144.5859375 259.73046875 C162.20837296 232.04445974 162.58484402 192.20551665 156.22265625 160.99609375 C152.20122868 144.1682316 144.24753181 130.06348385 129.58984375 120.46484375 C105.78771677 107.00210224 74.53188564 110.91587095 56 131 Z " fill="#1A1B1B" transform="translate(2413,226)"/>
<path d="M0 0 C3.50849596 0.62186292 6.69149045 1.53148871 10.01904297 2.79980469 C11.00454636 3.17324509 11.99004974 3.54668549 13.00541687 3.93144226 C14.60761833 4.54545647 14.60761833 4.54545647 16.2421875 5.171875 C17.93726189 5.81616203 17.93726189 5.81616203 19.6665802 6.47346497 C22.75739391 7.64917937 25.84682915 8.82839174 28.93569565 10.00920486 C32.20712133 11.25885721 35.48025248 12.50402732 38.75317383 13.74975586 C44.85649318 16.07360712 50.9582439 18.40154613 57.05923748 20.73149586 C62.61147246 22.85187447 68.16455928 24.97001461 73.71781921 27.08770752 C87.3368851 32.28152547 100.95261916 37.4840462 114.56774902 42.68817139 C124.98209731 46.66860293 135.3971457 50.64720167 145.8125 54.625 C146.95520355 55.06143829 148.0979071 55.49787659 149.27523804 55.94754028 C165.5107183 62.14781532 181.75270349 68.33076002 198 74.5 C215.40240233 81.10784372 232.79800203 87.73326838 250.1875 94.375 C251.32907562 94.81100525 252.47065125 95.2470105 253.64682007 95.69622803 C262.92794664 99.24118738 272.20867084 102.78719968 281.48937988 106.33325195 C289.5968995 109.43099121 297.70458856 112.52828642 305.8125 115.625 C306.95181976 116.06016937 308.09113953 116.49533875 309.26498413 116.94369507 C326.69055437 123.59878529 344.12488521 130.23055494 361.56381226 136.85055542 C384.39452174 145.51836081 407.1996668 154.25265264 430 163 C426.41650263 165.38899824 422.66680734 166.71253586 418.6484375 168.17578125 C417.78801346 168.49268417 416.92758942 168.8095871 416.04109192 169.13609314 C413.15372768 170.1985613 410.26435712 171.25546465 407.375 172.3125 C405.31276432 173.07025009 403.25067448 173.82839721 401.1887207 174.58691406 C396.76502049 176.21365789 392.34054724 177.83827524 387.91552734 179.46142578 C381.03116859 181.9874221 374.14994503 184.52187447 367.26953125 187.05859375 C366.119189 187.48269028 364.96884674 187.9067868 363.78364563 188.34373474 C361.43639846 189.20909855 359.08915421 190.0744703 356.74191284 190.93984985 C350.74245877 193.15123778 344.74230572 195.36072735 338.7421875 197.5703125 C328.11482042 201.48406859 317.48805345 205.39944945 306.86172867 209.31603432 C296.68433717 213.06714155 286.5060631 216.81584798 276.32736206 220.56340027 C270.60666159 222.67006946 264.88715385 224.77989709 259.16975403 226.89550781 C256.27340845 227.96691844 253.37623917 229.03608695 250.47885132 230.10467529 C248.63130443 230.78708636 246.78498763 231.47282495 244.9387207 232.15869141 C243.36223755 232.73949463 243.36223755 232.73949463 241.75390625 233.33203125 C240.87033447 233.65921143 239.9867627 233.9863916 239.07641602 234.32348633 C237 235 237 235 235 235 C234.73334534 235.91810204 234.73334534 235.91810204 234.46130371 236.85475159 C232.70998034 242.79949699 230.77288504 248.64116271 228.65625 254.46484375 C228.33520294 255.35423645 228.01415588 256.24362915 227.68338013 257.15997314 C226.62540366 260.0869668 225.56295715 263.01231174 224.5 265.9375 C224.12929382 266.96042145 223.75858765 267.9833429 223.37664795 269.03726196 C217.16207662 286.1832243 210.82440627 303.28194027 204.43719482 320.36422729 C198.26072051 336.88341394 192.1639864 353.43006462 186.125 370 C178.82546992 390.02844271 171.45899461 410.03039495 164 430 C161.85291254 426.77936881 160.55348329 423.52498441 159.19140625 419.93359375 C158.91351761 419.20962906 158.63562897 418.48566437 158.34931946 417.73976135 C157.41672564 415.30705585 156.48959549 412.87230571 155.5625 410.4375 C154.89430498 408.69065496 154.2258413 406.94391267 153.55712891 405.19726562 C151.36526849 399.46718229 149.18179839 393.73392095 147 388 C146.6324762 387.03427063 146.26495239 386.06854126 145.8862915 385.07354736 C142.40992323 375.93734611 138.93748026 366.7996557 135.46850586 357.66064453 C129.53814035 342.03790714 123.58773502 326.4229104 117.625 310.8125 C117.18953857 309.67237457 116.75407715 308.53224915 116.30541992 307.35757446 C113.20418965 299.23816274 110.10219333 291.1190438 107 283 C103.45779908 273.72937069 99.91597739 264.45859672 96.375 255.1875 C95.93983063 254.04818024 95.50466125 252.90886047 95.05630493 251.73501587 C88.39480839 234.29267144 81.75677912 216.84151124 75.13031006 199.38583374 C69.4460454 184.41393136 63.73405218 169.45290127 58 154.5 C51.86838548 138.51036061 45.76542242 122.51012559 39.6875 106.5 C33.216894 89.45788701 26.73722101 72.4192711 20.23892212 55.38769531 C19.34776097 53.05172971 18.45693819 50.71563498 17.5664978 48.37939453 C16.31356415 45.09238964 15.05941548 41.80585158 13.8046875 38.51953125 C13.20830223 36.95593369 13.20830223 36.95593369 12.59986877 35.36074829 C10.55860192 30.02272426 8.4912358 24.69655053 6.38378906 19.38427734 C5.75381516 17.79289192 5.75381516 17.79289192 5.1111145 16.1693573 C4.31110436 14.15345059 3.50669622 12.1392819 2.69723511 10.12715149 C2.34226959 9.23271835 1.98730408 8.33828522 1.62158203 7.41674805 C1.30738312 6.63317429 0.9931842 5.84960052 0.66946411 5.0422821 C0 3 0 3 0 0 Z M38 38 C40.0360459 45.17302926 42.46333443 52.12054819 45.1484375 59.07421875 C45.55289093 60.13046951 45.95734436 61.18672028 46.37405396 62.27497864 C47.70440041 65.74709559 49.03973243 69.21727293 50.375 72.6875 C51.3187413 75.14829106 52.26209373 77.60923129 53.20507812 80.0703125 C54.91664905 84.53681381 56.62934282 89.00288116 58.34353256 93.46837807 C62.64589684 104.67663677 66.92684347 115.89305106 71.20645142 127.11001587 C73.38271352 132.8133146 75.56060951 138.51598939 77.73828125 144.21875 C80.83091805 152.31822505 83.92300323 160.41791042 87.01449585 168.51782227 C96.02883149 192.13591093 105.04919288 215.75163507 114.09506226 239.35766602 C119.79488115 254.2324667 125.48181854 269.11214955 131.16195679 283.99447632 C133.80000615 290.90587083 136.43915024 297.81684742 139.07820129 304.7278595 C141.26970099 310.46714339 143.46049095 316.20669646 145.64990234 321.94677734 C147.7633443 327.48750204 149.87876242 333.02746838 151.99560547 338.56689453 C152.78394002 340.63090359 153.57154958 342.69518972 154.35839844 344.75976562 C155.43886438 347.59447644 156.52185337 350.42821065 157.60546875 353.26171875 C157.92215012 354.09438766 158.23883148 354.92705658 158.56510925 355.78495789 C158.85839615 356.55032364 159.15168304 357.31568939 159.45385742 358.10424805 C159.70584396 358.76442429 159.95783051 359.42460052 160.217453 360.1047821 C161.05126193 362.12414912 162.00108276 364.05769373 163 366 C164.88566761 363.17149858 165.90136542 360.82869025 167.05273438 357.65380859 C167.45563187 356.54906189 167.85852936 355.44431519 168.27363586 354.30609131 C168.70927353 353.09906555 169.14491119 351.89203979 169.59375 350.6484375 C170.05697963 349.37407272 170.52058558 348.09984468 170.98454285 346.82574463 C171.97603768 344.10072991 172.9651016 341.37485023 173.95223999 338.64825439 C175.50826033 334.35049842 177.06958073 330.0546814 178.63208008 325.75927734 C179.15932302 324.30972508 179.68655994 322.86017064 180.21379089 321.41061401 C180.47534658 320.6915173 180.73690228 319.97242058 181.0063839 319.23153305 C181.80363292 317.03903267 182.60035053 314.84633983 183.39692688 312.65359497 C186.61760602 303.78937994 189.85321755 294.93081681 193.10546875 286.078125 C193.49368805 285.01699997 193.88190735 283.95587494 194.28189087 282.8625946 C196.14916456 277.76661821 198.04191386 272.68324772 199.9921875 267.6184082 C203.32696506 258.88622736 206.29773796 250.47821616 208.01953125 241.27734375 C211.91642346 222.09788155 211.91642346 222.09788155 220.16931152 216.53875732 C231.87670269 210.04407273 245.08515874 206.54028088 257.89767456 202.92636108 C268.18583332 200.02441818 278.12089846 196.43995604 288.09863281 192.62081909 C292.74068029 190.85132423 297.40230598 189.13506336 302.0625 187.4140625 C303.00287109 187.06566818 303.94324219 186.71727386 304.91210938 186.35832214 C317.55137776 181.67712878 330.21394048 177.05934839 342.875 172.4375 C344.04174255 172.01155548 345.20848511 171.58561096 346.4105835 171.14675903 C352.93995905 168.76332672 359.46973095 166.38098315 366 164 C364.36426052 160.72852104 360.80578393 160.23949634 357.5234375 159.05078125 C356.7443251 158.76195572 355.96521271 158.47313019 355.16249084 158.17555237 C353.46506823 157.54700664 351.7664684 156.92163327 350.06686401 156.29901123 C345.45446272 154.6086637 340.85102607 152.89415956 336.24609375 151.18359375 C334.82403374 150.65647797 334.82403374 150.65647797 333.37324524 150.11871338 C324.36648524 146.7764187 315.39835885 143.3381013 306.4375 139.875 C303.19686957 138.62433845 299.95591347 137.37452266 296.71484375 136.125 C295.87417358 135.8008461 295.03350342 135.4766922 294.1673584 135.14271545 C282.62160303 130.6939484 271.06012808 126.28624879 259.5 121.875 C258.34128387 121.43278107 257.18256775 120.99056213 255.98873901 120.53494263 C250.0486031 118.26793275 244.10833812 116.00126136 238.16796875 113.73486328 C226.44477937 109.26213889 214.72226236 104.78765333 203 100.3125 C201.85418457 99.87508484 200.70836914 99.43766968 199.52783203 98.98699951 C182.89954699 92.63880161 166.2758107 86.27882339 149.65542603 79.90997314 C130.99987991 72.7615695 112.33749148 65.63113329 93.67114258 58.51098633 C83.45323908 54.6129626 73.23697621 50.7110609 63.03125 46.78125 C61.41188711 46.15855313 59.79250324 45.53591082 58.1730957 44.91333008 C55.26920285 43.79692605 52.36693335 42.67644147 49.46557617 41.5534668 C48.2101908 41.07062627 46.95474291 40.58794827 45.69921875 40.10546875 C44.63533936 39.69449951 43.57145996 39.28353027 42.4753418 38.86010742 C40.12188557 37.8905931 40.12188557 37.8905931 38 38 Z " fill="#007FFF" transform="translate(339,339)"/>
<path d="M0 0 C26.24706899 23.1890434 35.58062377 57.36573125 38.625 91.1875 C38.99277879 98.61663156 38.9375 106.06177058 38.9375 113.5 C-15.5125 113.5 -69.9625 113.5 -126.0625 113.5 C-122.44141547 146.02105945 -122.44141547 146.02105945 -104.8359375 172.3984375 C-89.74258365 183.83537324 -71.02728358 187.93121781 -52.375 185.8125 C-35.56097102 183.19892037 -21.36677918 175.39587939 -11.1875 161.5625 C-7.25181027 155.61255396 -4.7868952 149.39758081 -3.0625 142.5 C9.8075 142.5 22.6775 142.5 35.9375 142.5 C35.21401875 148.28784999 34.41504967 152.82725849 32.375 158.125 C31.98127197 159.15488037 31.98127197 159.15488037 31.57958984 160.20556641 C27.13344706 171.42285177 20.97732864 181.47633 12.9375 190.5 C12.27363281 191.24636719 11.60976562 191.99273438 10.92578125 192.76171875 C-5.63759503 210.30481414 -27.52311428 219.44516862 -51.5090332 220.67700195 C-83.46939609 221.2203909 -83.46939609 221.2203909 -98.0625 216.5 C-99.22007813 216.12617187 -100.37765625 215.75234375 -101.5703125 215.3671875 C-114.08477409 210.89985015 -124.62236703 204.86888668 -134.0625 195.5 C-134.92875 194.675 -135.795 193.85 -136.6875 193 C-137.47125 192.175 -138.255 191.35 -139.0625 190.5 C-139.95001953 189.60474609 -139.95001953 189.60474609 -140.85546875 188.69140625 C-160.68158815 167.79153184 -166.58540065 138.29632416 -168.0625 110.5 C-168.1346875 109.22125 -168.206875 107.9425 -168.28125 106.625 C-168.93381167 82.26269759 -163.80031748 57.33758387 -153.0625 35.5 C-152.60230469 34.52933594 -152.14210938 33.55867188 -151.66796875 32.55859375 C-140.49708329 10.44217211 -120.49090812 -6.20636888 -97.12011719 -14.16113281 C-65.38319956 -23.92019505 -26.19076581 -22.21227651 0 0 Z M-111.1875 39.0390625 C-120.96864449 51.87681464 -126.0625 66.38343067 -126.0625 82.5 C-84.8125 82.5 -43.5625 82.5 -1.0625 82.5 C-3.64010157 60.59038667 -7.5268474 41.07337041 -25.0625 26.5 C-51.98989949 5.96064915 -90.42937228 14.51433903 -111.1875 39.0390625 Z " fill="#1A1B1B" transform="translate(2092.0625,323.5)"/>
<path d="M0 0 C12.87 0 25.74 0 39 0 C39.33 37.29 39.66 74.58 40 113 C43.63 108.71 47.26 104.42 51 100 C68.64683015 84.33595975 88.23090344 76.7433661 112 78 C133.89517015 79.59115361 154.01730414 86.32511612 169 103 C183.26112794 121.16204038 185.16850302 142.89546978 185.11352539 165.09814453 C185.11324285 166.70551044 185.11340255 168.31287648 185.1139679 169.92024231 C185.11425327 174.25630018 185.10839864 178.59233005 185.10139394 182.92838144 C185.09511706 187.47006492 185.09455318 192.01174913 185.09336853 196.55343628 C185.09026795 205.14148147 185.08207181 213.72951384 185.07201904 222.3175534 C185.06081826 232.09994325 185.05533748 241.88233373 185.05032361 251.6647284 C185.03988807 271.77649433 185.0215585 291.8882427 185 312 C172.13 312 159.26 312 146 312 C145.97812622 304.90081055 145.97812622 304.90081055 145.95581055 297.65820312 C145.90537093 281.98404292 145.83890714 266.3099805 145.76428509 250.63591766 C145.71945011 241.13700983 145.68000757 231.63813847 145.65356445 222.13916016 C145.63048426 213.85325561 145.59697575 205.56746767 145.55129844 197.28165579 C145.52750042 192.90036424 145.50868424 188.51918719 145.50238609 184.13783264 C145.49627381 180.00093875 145.47605698 175.86433733 145.44572449 171.72755241 C145.43704144 170.22171509 145.43320106 168.71583939 145.43499184 167.2099781 C145.44649889 153.04931252 145.062599 136.12114591 135.21484375 124.98046875 C125.06761901 115.39809947 111.94905167 113.45539347 98.40625 113.76171875 C84.38294226 114.74270702 68.83123254 119.23603584 58.4375 129.33203125 C44.09058082 145.97913584 39.89115782 165.18828358 39.79467773 186.55444336 C39.78508637 187.9249195 39.77507558 189.29539277 39.76467896 190.66586304 C39.73776001 194.36985733 39.71668045 198.07386419 39.69667697 201.77790141 C39.67473668 205.65498158 39.64738752 209.53202357 39.62062073 213.40907288 C39.5708022 220.74346565 39.52582338 228.07787973 39.48259836 235.412314 C39.43313306 243.76542603 39.37824954 252.11849974 39.32291877 260.47157466 C39.20926523 277.64768232 39.10310545 294.82382529 39 312 C26.13 312 13.26 312 0 312 C0 209.04 0 106.08 0 0 Z " fill="#1A1B1B" transform="translate(1695,226)"/>
<path d="M0 0 C1.42273224 0.00323273 1.42273224 0.00323273 2.87420654 0.00653076 C16.72245129 0.05700897 30.22330033 0.41558768 43.8125 3.3125 C44.7813916 3.51117676 45.7502832 3.70985352 46.74853516 3.91455078 C103.41404964 15.77353524 155.24619233 46.1032442 190.8125 92.3125 C191.51375 93.19679688 192.215 94.08109375 192.9375 94.9921875 C225.80055667 137.362057 242.52402367 188.94822459 241.8125 242.3125 C234.5525 242.3125 227.2925 242.3125 219.8125 242.3125 C219.71453125 240.63027344 219.6165625 238.94804687 219.515625 237.21484375 C216.54240224 189.96517678 203.29128263 145.97720461 173.8125 108.3125 C172.78382813 106.96671875 172.78382813 106.96671875 171.734375 105.59375 C166.46531088 98.82535869 160.68775063 92.55224181 154.8125 86.3125 C154.15636719 85.60222656 153.50023437 84.89195312 152.82421875 84.16015625 C146.76274957 77.81313606 139.79986879 72.58566913 132.8125 67.3125 C131.96510254 66.66595459 131.96510254 66.66595459 131.10058594 66.00634766 C122.155079 59.2174869 112.73399205 53.63140055 102.81640625 48.37744141 C101.1495308 47.4916092 99.49496747 46.58265632 97.84375 45.66796875 C48.96652204 19.57615441 -11.6901411 16.52493491 -64.1875 32.3125 C-77.43306054 36.50053188 -89.98722343 41.68584314 -102.1875 48.3125 C-103.18040039 48.84012939 -103.18040039 48.84012939 -104.19335938 49.37841797 C-122.31664266 59.02538096 -138.18388453 71.30912556 -153.1875 85.3125 C-153.99960938 86.07046875 -154.81171875 86.8284375 -155.6484375 87.609375 C-162.0769937 93.81485827 -167.56866302 100.54681224 -172.93847656 107.66210938 C-174.03664547 109.11316915 -175.15359763 110.54997336 -176.2734375 111.984375 C-182.787652 120.54591406 -188.00436671 129.90817291 -193.1875 139.3125 C-193.56438965 139.99473633 -193.9412793 140.67697266 -194.32958984 141.37988281 C-220.8506443 190.06102387 -225.39947071 250.36532039 -210.11914062 303.27734375 C-205.54009628 318.19523664 -199.74163414 332.65387459 -192.1875 346.3125 C-191.81544434 346.99328613 -191.44338867 347.67407227 -191.06005859 348.37548828 C-177.10686567 373.68633637 -158.14066071 396.61191311 -134.97753906 413.96240234 C-133.22570143 415.28368741 -131.49877645 416.63265779 -129.7734375 417.98828125 C-91.53481044 447.58683656 -46.45050775 458.31670905 0.8125 461.3125 C0.8125 468.5725 0.8125 475.8325 0.8125 483.3125 C-63.09449832 484.63471376 -122.23066994 459.27573919 -168.1875 415.3125 C-203.74483436 381.15658273 -227.0923461 337.59554651 -237.5 289.4375 C-237.64727539 288.76259521 -237.79455078 288.08769043 -237.94628906 287.39233398 C-240.96776167 272.37872857 -241.56256193 257.39245304 -241.5 242.125 C-241.49676727 240.70226776 -241.49676727 240.70226776 -241.49346924 239.25079346 C-241.44298309 225.40037066 -241.07658957 211.90482903 -238.1875 198.3125 C-237.99414062 197.35956055 -237.80078125 196.40662109 -237.6015625 195.42480469 C-233.15399349 173.93508466 -226.77998388 152.50633875 -216.20117188 133.19433594 C-215.12871926 131.20337622 -214.11581948 129.18913375 -213.109375 127.1640625 C-198.31705252 97.72397887 -174.40034071 70.24144054 -148.1875 50.3125 C-147.6419043 49.89049316 -147.09630859 49.46848633 -146.53417969 49.03369141 C-132.13593464 37.929554 -116.6103166 29.06434691 -100.1875 21.3125 C-99.12015625 20.80203125 -98.0528125 20.2915625 -96.953125 19.765625 C-81.7521983 12.86959484 -65.46222759 8.03001179 -49.1875 4.4375 C-48.330354 4.24663818 -47.47320801 4.05577637 -46.59008789 3.85913086 C-31.11346049 0.63951387 -15.75958504 -0.06457856 0 0 Z " fill="#0080FF" transform="translate(322.1875,80.6875)"/>
<path d="M0 0 C1.15048828 1.06154297 1.15048828 1.06154297 2.32421875 2.14453125 C3.67580078 3.37623047 3.67580078 3.37623047 5.0546875 4.6328125 C30.09703085 28.5007563 39.62956055 62.34243589 41.25341797 96.02050781 C41.97181755 127.71927005 32.41895535 159.52238433 12.32421875 184.14453125 C11.34775391 185.40330078 11.34775391 185.40330078 10.3515625 186.6875 C-4.74793649 204.98727815 -28.01356996 214.57788994 -51.05078125 217.89453125 C-63.32116157 218.85645399 -75.58258282 218.45430273 -87.67578125 216.14453125 C-88.63226562 215.97308594 -89.58875 215.80164063 -90.57421875 215.625 C-104.41274239 212.68668334 -117.87863369 206.24306214 -128.67578125 197.14453125 C-129.58585937 196.39558594 -130.4959375 195.64664063 -131.43359375 194.875 C-156.63098297 173.15190261 -167.54085895 141.23696054 -170.15844727 108.89477539 C-170.34554125 106.31206007 -170.51566446 103.72904264 -170.67578125 101.14453125 C-170.74925781 100.05914062 -170.82273437 98.97375 -170.8984375 97.85546875 C-171.88401953 68.11660214 -161.55074442 34.48892872 -141.67578125 12.14453125 C-141.06347656 11.39042969 -140.45117188 10.63632812 -139.8203125 9.859375 C-124.12441951 -9.00805925 -100.55997885 -19.05635895 -76.54760742 -21.44189453 C-49.35372143 -23.70509642 -21.16256235 -18.21633126 0 0 Z M-109.67578125 31.14453125 C-125.06662507 49.28262508 -129.904405 73.71621703 -129.98828125 96.83203125 C-129.99089966 97.52027985 -129.99351807 98.20852844 -129.99621582 98.91763306 C-130.0010116 110.71027455 -128.84296821 121.75962527 -125.67578125 133.14453125 C-125.38703125 134.25054687 -125.09828125 135.3565625 -124.80078125 136.49609375 C-120.25326267 151.88457182 -111.4216725 167.0075322 -97.55078125 175.64453125 C-95.9408189 176.50655833 -94.31609764 177.34176629 -92.67578125 178.14453125 C-91.93714844 178.53125 -91.19851562 178.91796875 -90.4375 179.31640625 C-74.91812237 186.9244848 -56.62608612 185.58481475 -40.67578125 180.14453125 C-30.05366083 175.59967825 -22.02105225 168.73699054 -15.67578125 159.14453125 C-15.10988281 158.30535156 -14.54398438 157.46617187 -13.9609375 156.6015625 C1.80302712 131.59308471 3.8520752 98.66056749 -2.17529297 70.31884766 C-6.66139567 50.82946687 -14.87224211 31.66551906 -32.32421875 20.53515625 C-33.48824219 19.84679687 -33.48824219 19.84679687 -34.67578125 19.14453125 C-35.30742187 18.7475 -35.9390625 18.35046875 -36.58984375 17.94140625 C-60.04645787 4.56614544 -92.03549444 12.25537458 -109.67578125 31.14453125 Z " fill="#191B1B" transform="translate(2813.67578125,325.85546875)"/>
<path d="M0 0 C14.52 0 29.04 0 44 0 C47.37469043 7.87427768 47.37469043 7.87427768 48.34008789 10.86914062 C48.56278854 11.55422699 48.7854892 12.23931335 49.01493835 12.94515991 C49.36525871 14.03964951 49.36525871 14.03964951 49.72265625 15.15625 C49.9798494 15.95012115 50.23704254 16.74399231 50.50202942 17.56192017 C51.06241409 19.29279132 51.62131289 21.0241441 52.17889404 22.75592041 C53.40451896 26.56215585 54.63758903 30.36596759 55.87017822 34.16995239 C56.53504339 36.22198175 57.19954506 38.27412891 57.8637085 40.3263855 C61.46275948 51.44341375 65.09903325 62.54819307 68.73730469 73.6524353 C70.644911 79.47498398 72.55089687 85.29806308 74.45703125 91.12109375 C74.83453522 92.27424576 75.21203918 93.42739777 75.60098267 94.61549377 C95.89448475 156.60802113 95.89448475 156.60802113 104 182 C110.00527549 164.71941131 115.91278335 147.41132772 121.54639244 130.00566864 C123.05247167 125.35384795 124.56441847 120.70393428 126.07617188 116.05395508 C126.39382098 115.07674185 126.71147009 114.09952862 127.03874493 113.09270287 C132.83294127 95.27890661 138.69924802 77.48867131 144.56323242 59.69775391 C146.00091831 55.33539278 147.43665534 50.97239699 148.87084961 46.60888672 C150.64135568 41.22215506 152.41489786 35.83643237 154.19068336 30.4514389 C154.85633539 28.43124505 155.52094739 26.41070817 156.18445396 24.38980865 C157.10140233 21.59776373 158.02226707 18.80703966 158.9440918 16.01660156 C159.21053497 15.20230179 159.47697815 14.38800201 159.75149536 13.54902649 C160.00464005 12.78537277 160.25778473 12.02171906 160.51860046 11.23492432 C160.73363063 10.58191471 160.94866079 9.92890511 161.17020702 9.25610733 C162.32281401 6.12230752 163.68468676 3.06906422 165 0 C178.86 0 192.72 0 207 0 C204.74988814 10.12550336 204.74988814 10.12550336 203.02319336 14.96728516 C202.63706375 16.05809387 202.25093414 17.14890259 201.85310364 18.27276611 C201.43622787 19.43314392 201.01935211 20.59352173 200.58984375 21.7890625 C200.15093307 23.02388367 199.7120224 24.25870483 199.2598114 25.53094482 C198.07262131 28.87005781 196.87869136 32.20672168 195.6831131 35.54283905 C194.67790047 38.34994436 193.67624231 41.15831262 192.67455292 43.96667671 C190.15240664 51.03757068 187.62302292 58.10584937 185.08893585 65.172472 C183.61836768 69.27355762 182.15043097 73.37556959 180.68505859 77.47851562 C168.60039201 111.30415778 155.97643615 144.92572066 143.30578613 178.53503418 C142.11637498 181.69119344 140.92834515 184.84786655 139.74121094 188.00488281 C96.59365959 302.74853246 96.59365959 302.74853246 76.25 313.875 C65.9193452 318.36585878 55.47632674 319.48924041 44.3125 319.375 C42.59450195 319.39240234 42.59450195 319.39240234 40.84179688 319.41015625 C39.71451172 319.40628906 38.58722656 319.40242188 37.42578125 319.3984375 C35.93171753 319.39336182 35.93171753 319.39336182 34.4074707 319.38818359 C31 319 31 319 21 316 C21 304.12 21 292.24 21 280 C27.93 281.485 27.93 281.485 35 283 C38.07993308 283.25355381 40.88563735 283.42848932 43.9375 283.375 C44.97100586 283.39240234 44.97100586 283.39240234 46.02539062 283.41015625 C52.30458666 283.37451275 56.85863127 281.79277382 61.6875 277.75 C66.65832292 271.83875113 69.82989215 264.60633469 72.93554688 257.58178711 C74.3233112 254.45062087 75.80821836 251.38930994 77.34472656 248.32885742 C81.75471482 239.00241733 84.23447169 231.69397959 80.84375 221.65234375 C79.51093975 218.02772547 78.01695618 214.48812299 76.5 210.9375 C75.72648211 208.98116893 74.96027094 207.02193501 74.20092773 205.06005859 C72.62583568 201.01198639 71.01776361 196.97962167 69.38232422 192.95556641 C66.0345316 184.665097 63.04175705 176.2505816 60.0335083 167.83248901 C58.39421629 163.26160625 56.72491649 158.70170696 55.05859375 154.140625 C50.89542593 142.72548947 46.75712268 131.30140461 42.625 119.875 C42.09945526 118.42197983 42.09945526 118.42197983 41.56329346 116.93960571 C37.52919771 105.7846199 33.50348007 94.62664568 29.48828125 83.46484375 C29.11244904 82.42011902 28.73661682 81.37539429 28.34939575 80.29901123 C26.83784541 76.09685513 25.32641954 71.89465474 23.81604004 67.69207764 C19.67279047 56.16408969 15.51250077 44.64274202 11.30859375 33.13671875 C10.93228317 32.10593704 10.5559726 31.07515533 10.16825867 30.01313782 C8.37409133 25.0994133 6.57658283 20.18695875 4.77319336 15.27661133 C4.13773785 13.53861817 3.50239583 11.80058351 2.8671875 10.0625 C2.57440414 9.26925827 2.28162079 8.47601654 1.97996521 7.65873718 C0 2.22696046 0 2.22696046 0 0 Z " fill="#191B1B" transform="translate(1215,311)"/>
<path d="M0 0 C15.79694559 13.3649609 22.75093621 31.8976243 24.60618591 52.15887451 C25.21056712 59.69664252 25.19922091 67.22284228 25.17993164 74.77832031 C25.17964893 76.34657286 25.17980914 77.91482553 25.18037415 79.483078 C25.18065885 83.70331902 25.17481539 87.9235311 25.16780019 92.14376545 C25.16151181 96.56798973 25.16095854 100.99221481 25.15977478 105.41644287 C25.15667754 113.77775945 25.14848599 122.13906282 25.13842529 130.5003736 C25.12721402 140.0264664 25.12174111 149.55255986 25.11672986 159.07865763 C25.1063019 178.65921824 25.08797658 198.23976077 25.06640625 217.8203125 C12.19640625 217.8203125 -0.67359375 217.8203125 -13.93359375 217.8203125 C-13.95341309 213.425979 -13.97323242 209.03164551 -13.99365234 204.50415039 C-14.06074038 189.93961936 -14.13828053 175.37515758 -14.22112083 160.81070805 C-14.27106448 151.98555769 -14.31750811 143.16041579 -14.35546875 134.33520508 C-14.38859664 126.63565274 -14.42853952 118.93616972 -14.47638381 111.23669428 C-14.50144406 107.16670647 -14.52328347 103.09676342 -14.53693771 99.02672005 C-13.00067321 62.62471907 -13.00067321 62.62471907 -27.71484375 30.91796875 C-37.74986615 21.50017987 -50.35737477 19.26286206 -63.80859375 19.578125 C-78.21837179 20.6948828 -93.06209005 25.79268675 -102.93359375 36.8203125 C-113.46283093 49.91549823 -119.98618876 65.96482748 -120.09181213 82.89474487 C-120.10649536 84.68671043 -120.10649536 84.68671043 -120.12147522 86.51487732 C-120.12723068 87.8117598 -120.13298615 89.10864227 -120.13891602 90.44482422 C-120.14850411 91.83485703 -120.15851473 93.22488697 -120.16891479 94.61491394 C-120.19586905 98.376817 -120.21692971 102.13873249 -120.23691678 105.90067816 C-120.25883505 109.83648771 -120.28619508 113.77225938 -120.31297302 117.70803833 C-120.36282112 125.15579567 -120.40778909 132.60357413 -120.45099539 140.05137265 C-120.50043527 148.53263298 -120.5553283 157.01385528 -120.61067498 165.4950788 C-120.72437397 182.93678959 -120.83051936 200.37853546 -120.93359375 217.8203125 C-133.80359375 217.8203125 -146.67359375 217.8203125 -159.93359375 217.8203125 C-159.93359375 142.9103125 -159.93359375 68.0003125 -159.93359375 -9.1796875 C-148.05359375 -9.1796875 -136.17359375 -9.1796875 -123.93359375 -9.1796875 C-123.60359375 0.7203125 -123.27359375 10.6203125 -122.93359375 20.8203125 C-121.30421875 18.8403125 -119.67484375 16.8603125 -117.99609375 14.8203125 C-89.1363669 -19.46471936 -36.70681709 -27.27350724 0 0 Z " fill="#1A1B1B" transform="translate(2335.93359375,320.1796875)"/>
<path d="M0 0 C6.83088378 -0.2799079 13.66028174 -0.47192973 20.49560547 -0.60424805 C22.81810756 -0.65942244 25.14022999 -0.73438631 27.46142578 -0.82983398 C46.67985811 -1.60005405 46.67985811 -1.60005405 52.12133789 2.15258789 C54.22000713 5.01121112 55.60568526 7.74633635 57 11 C58.0297235 12.61040792 59.09048057 14.2014599 60.18359375 15.76953125 C61.27093124 17.44877428 62.35542086 19.12986377 63.4375 20.8125 C64.72171992 22.79617941 66.00695948 24.7791989 67.29296875 26.76171875 C67.64457062 27.3040918 67.99617249 27.84646484 68.35842896 28.40527344 C71.69226088 33.5411596 75.05727494 38.6563396 78.42578125 43.76953125 C78.98635727 44.62051895 79.54693329 45.47150665 80.12449646 46.34828186 C82.39709054 49.79740802 84.67022949 53.24617294 86.9447937 56.69400024 C88.55259851 59.1313713 90.15918637 61.56954088 91.765625 64.0078125 C92.24941116 64.74026688 92.73319733 65.47272125 93.23164368 66.22737122 C93.68403915 66.91433578 94.13643463 67.60130035 94.60253906 68.30908203 C95.02152466 68.94493225 95.44051025 69.58078247 95.87219238 70.23590088 C96.8670305 71.79201118 97.79060161 73.39319153 98.70214844 74.99951172 C99.13043945 75.65967285 99.55873047 76.31983398 100 77 C100.66 77 101.32 77 102 77 C103.46467499 74.86270602 104.80265402 72.72435771 106.125 70.5 C110.30848792 63.64531415 114.65497152 56.92120042 119.125 50.25 C119.77557373 49.27861084 120.42614746 48.30722168 121.09643555 47.30639648 C122.1645377 45.71224193 123.23266101 44.11810142 124.30143738 42.5243988 C127.65622811 37.51984153 130.99492653 32.50464404 134.33203125 27.48828125 C135.43406223 25.83234359 136.53611304 24.17641913 137.63818359 22.52050781 C139.28622234 20.04422053 140.93400112 17.56776268 142.58087158 15.09069824 C144.12445326 12.76938279 145.66948573 10.44903938 147.21484375 8.12890625 C147.68388626 7.42276688 148.15292877 6.7166275 148.63618469 5.98908997 C151.88608606 1.11391394 151.88608606 1.11391394 153 0 C154.47354348 -0.09304018 155.95150591 -0.11746265 157.42797852 -0.11352539 C158.36887833 -0.11344986 159.30977814 -0.11337433 160.27919006 -0.11329651 C161.30209641 -0.10813522 162.32500275 -0.10297394 163.37890625 -0.09765625 C164.42070541 -0.0962413 165.46250458 -0.09482635 166.53587341 -0.09336853 C169.87811094 -0.0877508 173.22028257 -0.0751953 176.5625 -0.0625 C178.82226466 -0.05748728 181.08203037 -0.05292398 183.34179688 -0.04882812 C188.89455391 -0.03777561 194.44727225 -0.02102024 200 0 C198.42433569 4.14013394 196.50873985 7.29489939 193.875 10.875 C192.97632223 12.10955582 192.07931124 13.34532596 191.18359375 14.58203125 C190.68327637 15.27248535 190.18295898 15.96293945 189.66748047 16.67431641 C186.37368984 21.26826217 183.1605827 25.91881509 179.9375 30.5625 C178.88949219 32.07106567 178.88949219 32.07106567 177.8203125 33.61010742 C174.33304745 38.63211518 170.85145804 43.65800744 167.375 48.6875 C161.90074187 56.60284098 156.37111463 64.47945178 150.84814453 72.36083984 C149.0102306 74.98539066 147.17466327 77.6115664 145.33984375 80.23828125 C138.61368094 89.86460773 131.8526002 99.46320156 125 109 C127.49193153 113.75419195 130.13144518 118.30364487 133.24609375 122.6796875 C136.8872258 127.83227782 140.45196427 133.03300264 144 138.25 C145.32030098 140.18880993 146.64061382 142.12761178 147.9609375 144.06640625 C148.96398926 145.54004639 148.96398926 145.54004639 149.98730469 147.04345703 C153.19782057 151.75953506 156.4112181 156.47364721 159.625 161.1875 C160.24681152 162.09959229 160.86862305 163.01168457 161.50927734 163.95141602 C165.54295094 169.86680204 169.581598 175.77875982 173.625 181.6875 C174.15150146 182.45698975 174.67800293 183.22647949 175.22045898 184.01928711 C177.92708812 187.9741695 180.63600607 191.92746474 183.34765625 195.87890625 C186.57296896 200.58059119 189.78955232 205.28815399 193 210 C193.50821289 210.74459473 194.01642578 211.48918945 194.54003906 212.25634766 C195.96947866 214.35487674 197.39216317 216.45780271 198.8125 218.5625 C199.23942139 219.18801758 199.66634277 219.81353516 200.10620117 220.45800781 C203 224.76985916 203 224.76985916 203 227 C196.16930356 227.3053457 189.34037406 227.51481858 182.50439453 227.65917969 C180.1817857 227.7193727 177.85962879 227.80115504 175.53857422 227.90527344 C156.32415661 228.74533799 156.32415661 228.74533799 150.93359375 224.69726562 C148.8408542 221.55815631 147.43923307 218.48244342 146 215 C144.70298185 212.96468672 143.36123153 210.9571953 141.9765625 208.98046875 C138.06809957 203.11777435 134.21904808 197.217542 130.375 191.3125 C123.30864294 180.48166372 116.17047984 169.69965619 109 158.9375 C108.50747742 158.19746735 108.01495483 157.45743469 107.50750732 156.69497681 C106.11049954 154.59654337 104.71182226 152.4992343 103.3125 150.40234375 C102.89038239 149.76817535 102.46826477 149.13400696 102.03335571 148.48062134 C100.19264792 145.60150148 100.19264792 145.60150148 98 143 C97.62939453 143.59611084 97.25878906 144.19222168 96.87695312 144.80639648 C87.71059326 159.53904802 78.43264013 174.19343063 69.05566406 188.79296875 C66.92408691 192.11843164 64.80082437 195.4491252 62.6796875 198.78125 C61.962225 199.90702499 61.24469634 201.03275783 60.52709961 202.15844727 C59.17992025 204.27247531 57.8342634 206.38747474 56.49047852 208.50366211 C55.87358154 209.47053955 55.25668457 210.43741699 54.62109375 211.43359375 C54.0892749 212.26947021 53.55745605 213.10534668 53.00952148 213.96655273 C52.34637939 214.96759033 51.6832373 215.96862793 51 217 C50.54097794 217.83768921 50.08195587 218.67537842 49.60902405 219.53845215 C45.47625257 226.47977868 45.47625257 226.47977868 41.52516174 227.87211609 C38.57298667 228.15707699 35.77836732 228.12735496 32.81640625 227.9765625 C31.23314796 227.95533829 31.23314796 227.95533829 29.61790466 227.9336853 C26.26315498 227.87792373 22.91521185 227.75253443 19.5625 227.625 C17.28199787 227.57481503 15.00139048 227.52919191 12.72070312 227.48828125 C7.14483292 227.37832701 1.57290253 227.21125266 -4 227 C-3.10314126 222.69949834 -0.88448786 219.65460129 1.625 216.125 C2.6308775 214.68666566 3.63604691 213.24783594 4.640625 211.80859375 C5.18267578 211.03499512 5.72472656 210.26139648 6.28320312 209.46435547 C9.34937122 205.06306128 12.35873499 200.62306975 15.375 196.1875 C16.66123115 194.29932439 17.94768942 192.41130347 19.234375 190.5234375 C20.18086914 189.13463379 20.18086914 189.13463379 21.14648438 187.71777344 C25.55556179 181.2528301 29.97766149 174.79678999 34.3984375 168.33984375 C36.03712194 165.94576576 37.67493448 163.55109346 39.3125 161.15625 C48.7333802 147.37970248 48.7333802 147.37970248 53.16259766 140.9453125 C54.04701976 139.65888034 54.92954046 138.37113868 55.81005859 137.08203125 C58.36793815 133.34236441 60.96883445 129.63890194 63.609375 125.95703125 C64.51719727 124.6740918 64.51719727 124.6740918 65.44335938 123.36523438 C66.62530755 121.69517355 67.81891725 120.03328991 69.02539062 118.38085938 C69.55841797 117.62224609 70.09144531 116.86363281 70.640625 116.08203125 C71.12047852 115.41405518 71.60033203 114.7460791 72.09472656 114.05786133 C73.29963617 111.31886913 72.86636283 109.81954434 72 107 C70.53980547 104.36591925 70.53980547 104.36591925 68.625 101.6875 C67.53058594 100.09421875 67.53058594 100.09421875 66.4140625 98.46875 C65.82286621 97.61990234 65.82286621 97.61990234 65.21972656 96.75390625 C63.99896525 94.99851209 62.79085023 93.2350535 61.5859375 91.46875 C55.46685903 82.51170139 49.25633125 73.61809303 43.0559082 64.71728516 C37.15075403 56.23295673 31.30865213 47.70674775 25.48193359 39.16845703 C23.60801685 36.42642598 21.7270891 33.68927079 19.84423828 30.95336914 C18.9578118 29.66526556 18.07205416 28.37670142 17.18701172 27.08764648 C14.61029426 23.33501231 12.02231619 19.59051753 9.42578125 15.8515625 C8.22127836 14.10942741 7.01685012 12.3672407 5.8125 10.625 C5.235 9.79742187 4.6575 8.96984375 4.0625 8.1171875 C3.53269531 7.34890625 3.00289062 6.580625 2.45703125 5.7890625 C1.7451062 4.76353271 1.7451062 4.76353271 1.01879883 3.71728516 C0 2 0 2 0 0 Z " fill="#1A1B1B" transform="translate(2878,311)"/>
<path d="" fill="#0080FF" transform="translate(0,0)"/>
</svg>
